<?xml version="1.0" encoding="utf-8"?>
<!-- Generator: Adobe Illustrator 21.0.0, SVG Export Plug-In . SVG Version: 6.00 Build 0)  -->
<svg version="1.1" id="Calque_1" xmlns="http://www.w3.org/2000/svg" xmlns:xlink="http://www.w3.org/1999/xlink" x="0px" y="0px"
	 viewBox="0 0 21 17" style="enable-background:new 0 0 21 17;" xml:space="preserve">
<style type="text/css">
	.st0{fill:#FFB500;}
</style>
<path class="st0" d="M7.1,14.9l-3.9-3.5l0-6.3l3.9-3.5c1.2-1.1,3.1-0.2,3.1,1.4v10.6C10.2,15.2,8.3,16,7.1,14.9z"/>
<path class="st0" d="M1.9,11.4h0.9V5.1H1.9c-0.8,0-1.5,0.7-1.5,1.5v3.3C0.4,10.7,1.1,11.4,1.9,11.4z"/>
<g>
	<path class="st0" d="M12.2,13.5c-0.2,0-0.4-0.1-0.4-0.3c-0.1-0.2,0-0.5,0.2-0.7c1.6-0.8,2.7-2.5,2.7-4.3c0-1.9-1.1-3.6-2.8-4.4
		c-0.2-0.1-0.4-0.4-0.2-0.7C11.7,3,12,2.9,12.3,3c2,1,3.4,3,3.4,5.3c0,2.2-1.2,4.2-3.2,5.2C12.4,13.5,12.3,13.5,12.2,13.5z"/>
</g>
<g>
	<path class="st0" d="M15.8,15.9c-0.1,0-0.3-0.1-0.4-0.2c-0.2-0.2-0.1-0.5,0.1-0.7c2-1.7,3.2-4.2,3.2-6.8c0-2.4-0.9-4.6-2.6-6.3
		c-0.2-0.2-0.2-0.5,0-0.7s0.5-0.2,0.7,0c1.9,1.9,2.9,4.3,2.9,7c0,2.9-1.3,5.7-3.6,7.6C16,15.9,15.9,15.9,15.8,15.9z"/>
</g>
</svg>
